<?xml version="1.0" encoding="utf-8"?>
<svg viewBox="0 0 500 500" xmlns="http://www.w3.org/2000/svg" xmlns:xlink="http://www.w3.org/1999/xlink">
  <defs>
    <linearGradient id="a8b3c97d-e0d9-42bd-b729-a4d45980fc6b" x1="736" y1="734.18" x2="736" y2="307.18" gradientUnits="userSpaceOnUse" gradientTransform="matrix(0.488046, 0, 0, 0.48813, -12.458817, 28.026858)">
      <stop offset="0" stop-color="gray" stop-opacity="0.25"/>
      <stop offset="0.54" stop-color="gray" stop-opacity="0.12"/>
      <stop offset="1" stop-color="gray" stop-opacity="0.1"/>
    </linearGradient>
    <linearGradient id="b66fe85f-ad74-4eee-9789-144feaee2a7f" x1="381.42" y1="718.18" x2="381.42" y2="312.18" gradientTransform="matrix(0.238189, 0, 0, 0.238271, -11.680852, -27.574507)" xlink:href="#a8b3c97d-e0d9-42bd-b729-a4d45980fc6b"/>
  </defs>
  <title>eating_together</title>
  <ellipse cx="90.997" cy="338.477" rx="21.962" ry="7.81" opacity="0.1" style=""/>
  <ellipse cx="445.797" cy="370.767" rx="21.962" ry="7.81" opacity="0.1" style=""/>
  <path d="M 325.13 90.241 C 281.712 104.615 234.648 105.284 190.933 91.752 C 128.976 72.58 48.061 67.673 18.078 155.53 C -33.095 305.632 71.596 359.209 71.596 359.209 C 71.596 359.209 144.686 373.251 185.157 398.625 C 242.643 434.665 313.045 446.714 379.365 429.813 C 421.774 419.003 458.123 401.271 468.515 372.257 C 497.578 291.112 447.757 219.975 475.517 208.296 C 503.277 196.617 473.18 131.013 442.47 105.139 C 411.76 79.265 340.264 85.226 325.13 90.241 Z" opacity="0.1" style=""/>
  <path d="M 444.909 371.875 C 444.909 371.875 450.765 351.94 443.806 337.267 C 440.842 331.131 439.948 324.199 441.258 317.512 C 441.905 314.342 442.841 311.237 444.055 308.238" fill="none" stroke="#535461" stroke-miterlimit="10" stroke-width="2" style=""/>
  <path d="M 439.721 298.968 C 439.721 301.409 444.143 308.497 444.143 308.497 C 444.143 308.497 448.564 301.414 448.564 298.968 C 448.564 295.562 444.877 293.433 441.928 295.136 C 440.559 295.927 439.716 297.387 439.716 298.968 Z" fill="#fd8440" style=""/>
  <path d="M 432.41 312.504 C 433.737 314.554 441.302 318.098 441.302 318.098 C 441.302 318.098 441.165 309.746 439.838 307.696 C 437.988 304.838 433.738 305.056 432.189 308.087 C 431.47 309.494 431.556 311.178 432.415 312.504 Z" fill="#fd8440" style=""/>
  <path d="M 432.727 335.627 C 434.909 336.725 443.225 335.968 443.225 335.968 C 443.225 335.968 438.891 328.827 436.71 327.729 C 433.67 326.196 430.111 328.528 430.303 331.928 C 430.393 333.505 431.317 334.915 432.727 335.627 Z" fill="#fd8440" style=""/>
  <path d="M 436.91 353.073 C 438.862 354.537 447.198 355.181 447.198 355.181 C 447.198 355.181 444.133 347.41 442.171 345.96 C 439.434 343.935 435.531 345.633 435.146 349.016 C 434.967 350.586 435.639 352.133 436.91 353.073 Z" fill="#fd8440" style=""/>
  <path d="M 450.585 318.572 C 448.833 320.275 440.668 322.037 440.668 322.037 C 440.668 322.037 442.669 313.929 444.421 312.226 C 446.863 309.853 450.957 311.014 451.791 314.316 C 452.178 315.848 451.718 317.47 450.585 318.572 Z" fill="#fd8440" style=""/>
  <path d="M 455.216 339.029 C 453.035 340.127 444.718 339.371 444.718 339.371 C 444.718 339.371 449.052 332.229 451.234 331.156 C 454.273 329.622 457.832 331.955 457.64 335.354 C 457.551 336.932 456.627 338.342 455.216 339.053 Z" fill="#fd8440" style=""/>
  <path d="M 456.988 359.535 C 455.036 361 446.7 361.644 446.7 361.644 C 446.7 361.644 449.765 353.873 451.727 352.423 C 454.464 350.398 458.366 352.095 458.752 355.479 C 458.93 357.049 458.258 358.595 456.988 359.535 Z" fill="#fd8440" style=""/>
  <path d="M 91.007 338.536 C 91.007 338.536 103.545 296.01 88.664 264.672 C 82.417 251.527 80.367 236.776 83.232 222.513 C 84.613 215.748 86.611 209.124 89.201 202.724" fill="none" stroke="#535461" stroke-miterlimit="10" stroke-width="2" style=""/>
  <path d="M 79.943 182.93 C 79.943 188.143 89.382 203.266 89.382 203.266 C 89.382 203.266 98.816 188.134 98.816 182.93 C 98.816 175.663 90.95 171.121 84.657 174.754 C 81.737 176.441 79.938 179.557 79.938 182.93 Z" fill="#fd8440" style=""/>
  <path d="M 64.34 211.813 C 67.176 216.206 83.315 223.752 83.315 223.752 C 83.315 223.752 83.022 205.926 80.187 201.552 C 76.097 195.545 67.04 196.219 63.883 202.764 C 62.488 205.659 62.66 209.064 64.34 211.803 Z" fill="#fd8440" style=""/>
  <path d="M 65.018 261.172 C 69.674 263.52 87.425 261.9 87.425 261.9 C 87.425 261.9 78.152 246.66 73.52 244.327 C 67.032 241.054 59.434 246.034 59.844 253.29 C 60.035 256.658 62.007 259.668 65.018 261.187 Z" fill="#fd8440" style=""/>
  <path d="M 73.925 298.402 C 78.118 301.502 95.887 302.903 95.887 302.903 C 95.887 302.903 89.347 286.306 85.15 283.221 C 79.308 278.9 70.98 282.524 70.159 289.745 C 69.778 293.097 71.214 296.397 73.925 298.402 Z" fill="#fd8440" style=""/>
  <path d="M 103.135 224.743 C 99.396 228.375 81.973 232.138 81.973 232.138 C 81.973 232.138 86.239 214.829 89.977 211.198 C 95.19 206.125 103.938 208.598 105.724 215.65 C 106.553 218.923 105.574 222.389 103.154 224.743 Z" fill="#fd8440" style=""/>
  <path d="M 113.018 268.436 C 108.362 270.784 90.612 269.163 90.612 269.163 C 90.612 269.163 99.884 253.924 104.516 251.59 C 111.004 248.318 118.602 253.297 118.192 260.553 C 118.001 263.921 116.029 266.931 113.018 268.45 Z" fill="#fd8440" style=""/>
  <path d="M 116.8 312.201 C 112.608 315.301 94.838 316.702 94.838 316.702 C 94.838 316.702 101.378 300.106 105.575 297.021 C 111.417 292.699 119.746 296.324 120.566 303.545 C 120.947 306.896 119.511 310.196 116.8 312.201 Z" fill="#fd8440" style=""/>
  <path d="M 244.868 233.637 L 217.67 230.113 C 216.567 229.971 215.717 229.551 215.747 229.185 L 215.747 229.185 C 215.795 228.819 216.723 228.648 217.85 228.809 L 244.99 232.739 C 245.737 232.846 246.303 233.129 246.269 233.378 L 246.269 233.378 C 246.235 233.613 245.61 233.735 244.868 233.637 Z" fill="#fd8440" style=""/>
  <path d="M 245.039 234.101 L 217.757 231.279 C 216.649 231.167 215.708 231.372 215.673 231.738 L 215.673 231.738 C 215.639 232.104 216.523 232.49 217.626 232.588 L 244.956 235.028 C 245.708 235.096 246.323 234.95 246.347 234.701 L 246.347 234.701 C 246.367 234.438 245.786 234.179 245.039 234.101 Z" fill="#fd8440" style=""/>
  <path d="M 285.967 254.627 L 313.161 251.102 C 314.264 250.961 315.113 250.541 315.084 250.175 L 315.084 250.175 C 315.035 249.809 314.107 249.638 312.98 249.799 L 285.84 253.728 C 285.093 253.836 284.527 254.119 284.561 254.368 L 284.561 254.368 C 284.595 254.602 285.22 254.724 285.967 254.627 Z" fill="#fd8440" style=""/>
  <path d="M 285.791 255.09 L 313.073 252.269 C 314.181 252.157 315.123 252.362 315.157 252.728 L 315.157 252.728 C 315.191 253.094 314.308 253.479 313.205 253.577 L 285.874 256.018 C 285.122 256.086 284.507 255.94 284.483 255.691 L 284.483 255.691 C 284.464 255.427 285.044 255.168 285.791 255.09 Z" fill="#fd8440" style=""/>
  <rect x="189.373" y="283.841" width="6.633" height="95.117" fill="#40414d" style=""/>
  <rect x="334.234" y="283.841" width="6.633" height="95.117" fill="#40414d" style=""/>
  <path d="M 186.84 276.099 L 340.086 276.099 C 346.016 276.099 350.823 280.907 350.823 286.838 L 350.823 288.264 C 350.823 288.264 350.823 288.264 350.823 288.264 L 176.103 288.264 C 176.103 288.264 176.103 288.264 176.103 288.264 L 176.103 286.838 C 176.103 280.907 180.91 276.099 186.84 276.099 Z" fill="#dfe6f5" style=""/>
  <path d="M 186.352 276.099 L 339.598 276.099 C 345.528 276.099 350.335 280.907 350.335 286.838 L 350.335 288.264 C 350.335 288.264 350.335 288.264 350.335 288.264 L 175.615 288.264 C 175.615 288.264 175.615 288.264 175.615 288.264 L 175.615 286.838 C 175.615 280.907 180.422 276.099 186.352 276.099 Z" opacity="0.1" style=""/>
  <path d="M 186.84 273.883 L 340.086 273.883 C 346.016 273.883 350.823 278.691 350.823 284.622 L 350.823 286.047 C 350.823 286.047 350.823 286.047 350.823 286.047 L 176.103 286.047 C 176.103 286.047 176.103 286.047 176.103 286.047 L 176.103 284.622 C 176.103 278.691 180.91 273.883 186.84 273.883 Z" fill="#dfe6f5" style=""/>
  <circle cx="417.25" cy="339.19" r="13.27" fill="#ffd77c" stroke="#ffab50" stroke-miterlimit="10" transform="matrix(1, 0, 0, 1.000171, -153.786972, -86.378799)" style=""/>
  <circle cx="417.25" cy="339.19" r="10.517" fill="#ffd77c" stroke="#ffab50" stroke-miterlimit="10" transform="matrix(1, 0, 0, 1.000171, -153.786972, -86.378799)" style=""/>
  <circle cx="417.25" cy="339.19" r="8.014" fill="#ffd77c" stroke="#ffab50" stroke-miterlimit="10" transform="matrix(1, 0, 0, 1.000171, -153.786972, -86.378799)" style=""/>
  <circle cx="417.25" cy="339.19" r="4.505" fill="#ffd77c" stroke="#ffab50" stroke-miterlimit="10" transform="matrix(1, 0, 0, 1.000171, -153.786972, -86.378799)" style=""/>
  <circle cx="401.39" cy="353.92" r="13.27" fill="#ffd77c" stroke="#ffab50" stroke-miterlimit="10" transform="matrix(1, 0, 0, 1.000171, -145.667389, -93.921173)" style=""/>
  <circle cx="401.39" cy="353.92" r="10.517" fill="#ffd77c" stroke="#ffab50" stroke-miterlimit="10" transform="matrix(1, 0, 0, 1.000171, -145.667389, -93.921173)" style=""/>
  <circle cx="401.39" cy="353.92" r="8.014" fill="#ffd77c" stroke="#ffab50" stroke-miterlimit="10" transform="matrix(1, 0, 0, 1.000171, -145.667389, -93.921173)" style=""/>
  <circle cx="401.39" cy="353.92" r="4.505" fill="#ffd77c" stroke="#ffab50" stroke-miterlimit="10" transform="matrix(1, 0, 0, 1.000171, -145.667389, -93.921173)" style=""/>
  <circle cx="433.11" cy="353.92" r="13.27" fill="#ffd77c" stroke="#ffab50" stroke-miterlimit="10" transform="matrix(1, 0, 0, 1.000171, -161.90654, -93.921173)" style=""/>
  <circle cx="433.11" cy="353.92" r="10.517" fill="#ffd77c" stroke="#ffab50" stroke-miterlimit="10" transform="matrix(1, 0, 0, 1.000171, -161.90654, -93.921173)" style=""/>
  <circle cx="433.11" cy="353.92" r="8.014" fill="#ffd77c" stroke="#ffab50" stroke-miterlimit="10" transform="matrix(1, 0, 0, 1.000171, -161.90654, -93.921173)" style=""/>
  <circle cx="433.11" cy="353.92" r="4.505" fill="#ffd77c" stroke="#ffab50" stroke-miterlimit="10" transform="matrix(1, 0, 0, 1.000171, -161.90654, -93.921173)" style=""/>
  <path d="M 235.815 256.193 L 291.106 256.193 C 291.106 256.193 291.106 256.193 291.106 256.193 L 291.106 258.79 C 291.106 269.574 282.366 278.315 271.584 278.315 L 255.337 278.315 C 244.555 278.315 235.815 269.574 235.815 258.79 L 235.815 256.193 C 235.815 256.193 235.815 256.193 235.815 256.193 Z" fill="#fd8440" style=""/>
  <path d="M 286.118 256.189 C 285.819 268.184 276.011 277.753 264.014 277.754 L 253.038 277.754 C 254.639 278.12 256.276 278.307 257.919 278.311 L 268.978 278.311 C 281.197 278.316 291.106 268.41 291.106 256.189 Z" opacity="0.1" style=""/>
  <rect x="274.866" y="259.641" width="6.634" height="143.759" transform="matrix(0, 1, -1, 0, 597.19397, 81.418472)" fill="#40414d" style=""/>
  <rect x="134.092" y="333.118" width="5.803" height="52.806" fill="#40414d" style=""/>
  <rect x="179.924" y="333.118" width="5.803" height="52.806" fill="#40414d" style=""/>
  <path d="M 190.373 324.414 C 190.373 327.939 178.426 330.799 163.687 330.799 C 148.948 330.799 137.581 327.944 137.581 324.414 C 137.581 320.885 148.948 318.03 163.687 318.03 C 178.426 318.03 190.373 320.905 190.373 324.414 Z" fill="#f6c6cd" style=""/>
  <path d="M 129.45 324.41 L 190.368 324.41 C 190.368 324.41 190.368 324.41 190.368 324.41 L 190.368 329.73 C 190.368 332.561 188.074 334.856 185.244 334.856 L 138.235 334.856 C 133.383 334.856 129.45 330.922 129.45 326.069 L 129.45 324.41 C 129.45 324.41 129.45 324.41 129.45 324.41 Z" fill="#40414d" style=""/>
  <path d="M 127.076 262.324 L 128.364 262.324 C 130.251 262.324 131.78 263.854 131.78 265.741 L 131.775 334.85 C 131.775 334.85 131.775 334.85 131.775 334.85 L 129.823 334.85 C 126.411 334.85 123.644 332.083 123.645 328.67 L 123.649 265.741 C 123.649 263.85 125.185 262.319 127.076 262.324 Z" fill="#40414d" style="" transform="matrix(0.97545, -0.220223, 0.220223, 0.97545, -62.62029, 35.455647)"/>
  <rect x="-393.805" y="-386.861" width="5.803" height="52.806" transform="matrix(-1, 0, 0, -1, 0, 0)" fill="#40414d" style=""/>
  <rect x="-347.973" y="-386.861" width="5.803" height="52.806" transform="matrix(-1, 0, 0, -1, 0, 0)" fill="#40414d" style=""/>
  <path d="M 337.534 325.352 C 337.534 328.876 349.481 331.736 364.22 331.736 C 378.959 331.736 390.326 328.881 390.326 325.352 C 390.326 321.822 378.954 318.952 364.22 318.952 C 349.486 318.952 337.534 321.827 337.534 325.352 Z" fill="#f6c6cd" style=""/>
  <path d="M 346.314 325.352 L 393.322 325.352 C 396.152 325.352 398.447 327.646 398.447 330.477 L 398.447 335.798 C 398.447 335.798 398.447 335.798 398.447 335.798 L 337.529 335.798 C 337.529 335.798 337.529 335.798 337.529 335.798 L 337.529 334.138 C 337.529 329.285 341.462 325.352 346.314 325.352 Z" fill="#40414d" style="" transform="matrix(-1, 0, 0, -1, 735.975983, 661.149994)"/>
  <path d="M 402.295 263.25 L 404.248 263.25 C 404.248 263.25 404.248 263.25 404.248 263.25 L 404.253 332.369 C 404.253 334.256 402.723 335.786 400.837 335.786 L 399.548 335.786 C 397.661 335.786 396.132 334.256 396.131 332.369 L 396.127 269.43 C 396.127 266.021 398.887 263.255 402.295 263.25 Z" fill="#40414d" style="" transform="matrix(-0.97545, -0.220223, 0.220223, -0.97545, 724.594461, 679.813707)"/>
  <path d="M 392.214 304.797 L 393.927 304.255 C 393.927 304.255 390.999 284.69 391.028 267.157 C 391.028 266.669 391.028 266.146 391.028 265.644 C 391.063 264.55 391.102 263.467 391.155 262.407 C 391.224 261.05 391.238 259.757 391.229 258.502 C 391.39 241.618 384.738 234.486 384.738 234.486 C 384.738 234.486 376.929 223.347 372.248 221.18 C 371.843 219.911 371.38 218.28 370.97 216.386 C 371.121 216.284 371.267 216.181 371.409 216.074 C 373.342 214.64 375.191 213.097 376.948 211.451 C 379.349 209.201 381.653 206.458 381.526 203.363 C 381.539 203.062 381.53 202.76 381.497 202.46 C 381.053 198.726 377.173 195.914 375.606 192.375 C 374.288 189.403 374.684 186.093 373.532 183.077 C 372.38 180.06 368.359 177.253 365.323 178.84 C 364.205 179.425 363.532 180.46 362.6 181.246 C 360.286 183.199 356.558 183.379 353.395 182.491 C 350.233 181.602 349.296 177.98 344.874 177.971 C 345.267 178.102 345.642 178.281 345.992 178.503 C 345.622 178.441 345.248 178.408 344.874 178.405 C 346.711 178.987 348.035 180.595 348.251 182.51 C 348.244 182.628 348.231 182.745 348.212 182.862 C 346.445 183.814 344.122 183.272 342.004 183.238 C 339.886 183.203 337.475 184.272 337.685 186.005 C 337.649 186.202 337.649 186.404 337.685 186.601 C 337.963 187.914 339.72 188.905 339.935 190.12 C 339.935 190.154 339.935 190.184 339.935 190.218 C 336.015 192.177 331.775 193.414 327.416 193.869 C 327.275 193.869 327.338 194.04 327.543 194.289 L 327.416 194.289 C 326.621 194.372 332.185 198.77 332.819 199.058 C 335.142 200.112 337.919 200.888 340.379 201.699 L 340.594 201.767 C 339.765 203.693 339.338 205.767 339.339 207.864 C 339.339 215.381 344.742 221.697 352.058 223.484 C 353.424 225.08 354.859 226.832 356.167 228.575 L 356.075 228.575 C 356.075 228.575 347.666 239.763 347.934 256.472 C 347.91 258.566 348.021 260.659 348.266 262.739 C 342.858 262.432 331.238 261.006 322.399 254.534 C 310.476 245.811 297.177 248.427 299.949 253.66 C 302.721 258.893 316.919 263.252 319.208 263.691 C 319.422 263.73 319.92 263.847 320.633 264.023 C 317.812 264.555 315.879 265.487 315.996 266.742 C 316.226 269.139 328.378 276.773 335.713 277.207 C 340.56 277.495 346.392 278.989 350.994 280.302 C 351.438 290.333 349.013 293.34 349.013 293.34 C 349.013 293.34 349.735 293.784 350.931 294.414 L 350.418 295.878 C 347.441 297.597 343.771 299.388 340.433 300.11 C 336.179 300.985 332.044 302.361 328.114 304.211 L 311.604 312.192 C 308.606 313.583 306.539 316.423 306.138 319.704 C 305.777 323.087 306.797 327.314 312.321 330.667 C 312.663 333.416 314.342 336.623 318.749 339.561 C 327.29 345.243 349.735 362.264 352.79 364.588 C 352.849 368.742 352.302 377.074 347.177 378.372 C 340.755 380.003 345.923 386.182 351.116 385.938 C 352.348 386.405 353.689 386.503 354.976 386.221 C 360.482 384.913 380.657 377.923 382.034 367.467 C 382.091 367.014 382.117 366.558 382.112 366.101 C 382.192 364.318 381.747 362.551 380.833 361.019 C 381.048 361.492 381.223 361.982 381.355 362.484 C 379.686 358.676 375.621 356.284 372.458 354.937 C 372.458 354.903 372.458 354.864 372.458 354.83 C 371.97 354.639 371.482 354.483 371.082 354.342 C 371.09 354.059 371.069 353.776 371.019 353.497 L 339.378 331.692 C 339.378 331.692 353.137 320.353 367.353 322.101 C 381.57 323.848 383.835 321.266 383.835 321.266 C 383.835 321.266 391.126 314.33 391.858 306.344 L 392.317 306.222 C 392.317 306.222 392.283 305.719 392.214 304.797 Z" fill="url(#a8b3c97d-e0d9-42bd-b729-a4d45980fc6b)" style=""/>
  <path d="M 353.576 361.59 C 353.576 361.59 354.869 375.829 348.398 377.557 C 341.926 379.285 347.968 386.187 353.141 384.879 C 358.315 383.571 377.305 376.678 378.598 366.33 C 379.891 355.982 365.655 352.521 365.655 352.521 Z" fill="#b8616e" style=""/>
  <path d="M 353.576 361.59 C 353.576 361.59 354.869 375.829 348.398 377.557 C 341.926 379.285 347.968 386.187 353.141 384.879 C 358.315 383.571 377.305 376.678 378.598 366.33 C 379.891 355.982 365.655 352.521 365.655 352.521 Z" opacity="0.05" style=""/>
  <path d="M 356.177 362.02 C 356.177 362.02 357.47 376.259 350.999 377.987 C 344.527 379.715 350.569 386.617 355.743 385.309 C 360.916 384 379.906 377.108 381.199 366.76 C 382.492 356.411 368.256 352.951 368.256 352.951 Z" fill="#b8616e" style=""/>
  <path d="M 369.55 353.39 L 357.48 362.454 C 357.48 362.454 357.534 363.069 357.568 364.051 C 362.126 362.801 372.058 359.482 372.209 354.288 C 371.342 353.936 370.453 353.636 369.55 353.39 Z" opacity="0.1" style=""/>
  <rect x="356.821" y="229.322" width="5.178" height="3.886" fill="#f8bdc5" style=""/>
  <path d="M 357.041 292.105 C 357.041 292.105 348.817 298.568 342.063 300.101 C 338.047 300.97 334.153 302.332 330.472 304.157 L 314.937 312.055 C 312.07 313.497 310.133 316.298 309.793 319.489 C 309.349 323.882 311.116 329.662 321.658 333.098 L 354.879 360.717 L 365.235 352.087 L 329.857 324.907 L 357.041 308.077 Z" fill="#758ac8" style=""/>
  <path d="M 357.041 292.105 C 357.041 292.105 348.817 298.568 342.063 300.101 C 338.047 300.97 334.153 302.332 330.472 304.157 L 314.937 312.055 C 312.07 313.497 310.133 316.298 309.793 319.489 C 309.349 323.882 311.116 329.662 321.658 333.098 L 354.879 360.717 L 365.235 352.087 L 329.857 324.907 L 357.041 308.077 Z" opacity="0.1" style=""/>
  <path d="M 352.292 263.198 C 352.292 263.198 336.328 263.628 325.108 254.998 C 313.888 246.367 301.379 248.954 303.966 254.134 C 306.552 259.313 319.93 263.628 322.087 264.057 C 324.244 264.487 355.308 273.122 355.308 273.122 Z" fill="#f8bdc5" style=""/>
  <path d="M 352.292 263.198 C 352.292 263.198 336.328 263.628 325.108 254.998 C 313.888 246.367 301.379 248.954 303.966 254.134 C 306.552 259.313 319.93 263.628 322.087 264.057 C 324.244 264.487 355.308 273.122 355.308 273.122 Z" opacity="0.05" style=""/>
  <path d="M 354.02 288.229 L 348.842 303.767 C 348.842 303.767 319.72 321.676 317.343 324.048 C 315.498 325.893 313.029 333.113 321.658 339.151 C 330.286 345.189 354.015 364.182 354.015 364.182 C 354.015 364.182 372.136 360.277 370.843 352.955 L 341.072 331.38 C 341.072 331.38 354.015 320.153 367.392 321.886 C 380.77 323.619 382.927 321.022 382.927 321.022 C 382.927 321.022 393.283 310.654 389.828 300.745 C 386.372 290.836 354.02 288.229 354.02 288.229 Z" fill="#758ac8" style=""/>
  <path d="M 347.548 217.909 C 347.548 217.909 362.219 233.876 361.355 238.621 C 360.491 243.365 373.005 224.812 373.005 224.812 C 373.005 224.812 369.101 215.317 369.984 204.959 Z" fill="#f8bdc5" style=""/>
  <path d="M 360.35 232.553 C 361.351 231.496 362.405 230.491 363.507 229.542 C 365.715 227.731 367.74 225.709 369.554 223.503 C 372.575 219.598 383.791 236.449 383.791 236.449 C 383.791 236.449 390.692 244.215 389.833 262.773 C 388.974 281.332 390.911 306.144 390.911 306.144 L 388.3 306.871 C 383.841 308.359 378.942 307.663 375.074 304.992 C 371.629 302.61 367.265 300.11 363.947 299.886 C 357.475 299.456 351.648 295.786 351.648 295.786 C 351.648 295.786 354.454 289.098 350.14 267.518 C 345.826 245.938 356.821 230.601 356.821 230.601 C 356.821 230.601 357.69 235.297 360.35 232.553 Z" opacity="0.1" style=""/>
  <path d="M 392.419 304.196 L 389.833 305.06 L 388.295 305.573 C 383.837 307.062 378.937 306.365 375.069 303.693 C 371.629 301.316 367.261 298.812 363.942 298.588 C 357.48 298.153 350.159 293.408 350.159 293.408 C 350.159 293.408 354.474 287.8 350.159 266.22 C 345.845 244.639 356.846 229.322 356.846 229.322 C 356.846 229.322 357.714 233.993 360.374 231.245 C 361.373 230.189 362.425 229.186 363.527 228.238 C 365.735 226.428 367.76 224.405 369.574 222.2 C 372.595 218.295 383.81 235.145 383.81 235.145 C 383.81 235.145 390.711 242.911 389.852 261.47 C 389.76 263.423 389.72 265.434 389.716 267.469 C 389.652 284.837 392.419 304.196 392.419 304.196 Z" fill="#5e52ad" style=""/>
  <path d="M 367.827 261.905 L 368.256 271.399 C 368.256 271.399 345.386 272.692 340.643 267.948 C 335.899 263.203 353.576 281.903 357.48 283.05 C 361.145 284.129 370.609 285.081 375.572 285.179 C 378.469 285.272 381.148 283.647 382.405 281.034 C 382.983 279.776 383.17 278.373 382.942 277.007 C 382.078 271.399 382.942 259.313 382.942 259.313 Z" opacity="0.1" style=""/>
  <path d="M 367.827 261.041 L 368.256 270.535 C 368.256 270.535 345.386 271.828 340.643 267.084 C 335.899 262.339 318.734 263.388 319.071 267.084 C 319.286 269.456 330.721 277.007 337.617 277.442 C 344.513 277.876 353.576 281.039 357.48 282.186 C 361.145 283.265 370.609 284.217 375.572 284.315 C 378.469 284.408 381.148 282.783 382.405 280.17 C 382.983 278.912 383.17 277.509 382.942 276.143 C 382.078 270.535 382.942 258.449 382.942 258.449 Z" fill="#f8bdc5" style=""/>
  <path d="M 373.005 233.422 C 373.005 233.422 363.083 234.716 364.376 249.389 C 365.67 264.062 367.397 265.356 367.397 265.356 C 367.397 265.356 382.068 264.062 383.791 263.628 C 385.514 263.193 384.655 247.231 384.655 247.231 C 384.655 247.231 384.22 232.993 373.005 233.422 Z" opacity="0.1" style=""/>
  <path d="M 373.005 232.993 C 373.005 232.993 363.083 234.286 364.376 248.959 C 365.67 263.633 367.397 264.926 367.397 264.926 C 367.397 264.926 382.068 263.633 383.791 263.198 C 385.514 262.764 384.655 246.802 384.655 246.802 C 384.655 246.802 384.22 232.553 373.005 232.993 Z" fill="#5e52ad" style=""/>
  <path d="M 369.335 214.219 C 368.656 210.802 370.047 209.748 370.413 205.374 L 347.963 218.319 C 347.963 218.319 350.535 221.121 353.459 224.719 C 354.765 225.049 356.108 225.213 357.456 225.207 C 363.337 225.231 366.553 218.915 369.335 214.219 Z" opacity="0.1" style=""/>
  <circle cx="608.98" cy="248.96" r="15.964" fill="#f8bdc5" transform="matrix(1, 0, 0, 1.000171, -251.943832, -40.177341)" style=""/>
  <path d="M 361.062 203.978 C 358.622 205.53 358.588 209.04 360.16 211.471 C 361.731 213.902 364.44 215.508 367.046 217.021 C 367.802 217.46 368.637 217.914 369.486 217.817 C 370.139 217.689 370.744 217.384 371.233 216.933 C 373.057 215.51 374.797 213.983 376.446 212.359 C 378.818 210.026 381.097 207.151 380.726 203.895 C 380.306 200.2 376.655 197.418 375.182 193.918 C 373.942 190.989 374.313 187.704 373.229 184.712 C 372.146 181.72 368.349 178.952 365.508 180.519 C 364.459 181.095 363.825 182.125 362.946 182.901 C 360.77 184.824 357.261 185.014 354.283 184.136 C 351.306 183.257 350.423 179.669 346.27 179.66 C 348.334 180.387 349.73 182.54 349.413 184.502 C 347.748 185.444 345.562 184.907 343.556 184.873 C 341.55 184.839 339.164 185.961 339.51 187.767 C 339.813 189.232 341.926 190.32 341.614 191.785 C 337.948 193.716 333.951 194.942 329.832 195.397 C 329.086 195.48 334.317 199.829 334.913 200.117 C 337.094 201.162 339.715 201.928 342.024 202.729 C 348.295 204.891 354.718 205.662 361.062 203.978 Z" opacity="0.1" style=""/>
  <path d="M 361.062 203.544 C 358.622 205.096 358.588 208.606 360.16 211.037 C 361.731 213.467 364.44 215.073 367.046 216.587 C 367.802 217.026 368.637 217.48 369.486 217.382 C 370.139 217.255 370.744 216.949 371.233 216.499 C 373.057 215.076 374.797 213.548 376.446 211.925 C 378.818 209.592 381.097 206.717 380.726 203.461 C 380.306 199.766 376.655 196.983 375.182 193.483 C 373.942 190.555 374.313 187.27 373.229 184.277 C 372.146 181.285 368.349 178.517 365.508 180.084 C 364.459 180.66 363.825 181.69 362.946 182.466 C 360.77 184.39 357.261 184.58 354.283 183.701 C 351.306 182.823 350.423 179.235 346.27 179.225 C 348.334 179.952 349.73 182.105 349.413 184.067 C 347.748 185.01 345.562 184.473 343.556 184.438 C 341.55 184.404 339.164 185.527 339.51 187.333 C 339.813 188.797 341.926 189.886 341.614 191.35 C 337.948 193.282 333.951 194.507 329.832 194.962 C 329.086 195.045 334.317 199.395 334.913 199.683 C 337.094 200.727 339.715 201.494 342.024 202.294 C 348.295 204.461 354.718 205.218 361.062 203.544 Z" fill="#916168" style=""/>
  <path d="M 380.072 360.39 C 380.765 361.988 381.006 363.745 380.77 365.471 C 379.476 375.829 360.491 382.731 355.313 384.02 C 352.585 384.703 349.613 383.107 348.368 381.189 C 349.169 383.444 352.614 385.665 355.748 384.884 C 360.926 383.59 379.911 376.683 381.204 366.335 C 381.487 364.283 381.089 362.194 380.072 360.39 Z" fill="#fff" opacity="0.1" style=""/>
  <path d="M 242.955 372.158 L 242.955 372.158 C 242.57 371.29 240.569 369.596 230.92 369.23 C 224.312 368.981 222.062 365.491 221.452 362.083 C 223.624 361.8 225.322 361.41 225.878 360.868 C 225.878 360.868 225.849 360.712 225.8 360.434 L 225.878 360.375 C 225.456 357.917 225.236 355.429 225.22 352.936 C 225.207 350.802 225.433 348.674 225.893 346.59 C 226.162 345.213 226.275 343.81 226.23 342.407 C 226.284 334.109 223.37 319.523 223.37 319.523 L 222.97 307.403 C 222.888 304.323 221.13 301.533 218.387 300.13 C 217.428 299.634 216.367 299.37 215.288 299.359 C 215.288 299.359 199.992 296.947 186.225 295.634 C 185.249 294.848 181.808 292.73 173.921 293.945 L 169.382 280.659 C 169.346 280.498 169.319 280.335 169.304 280.17 C 169.465 278.481 170.593 275.938 175.849 275.777 L 176.947 276.753 C 176.947 276.753 177.142 276.368 177.469 275.777 C 183.989 275.704 219.509 275.343 221.34 275.777 C 223.355 276.265 241.013 272.331 241.52 271.843 C 248.382 265.151 221.34 268.397 221.34 268.397 C 218.68 268.831 210.085 268.314 201.281 267.596 C 205.639 261.06 209.739 238.875 209.739 238.875 C 209.739 238.875 225.356 231.001 220.837 226.574 C 216.318 222.146 202.677 236.414 202.677 236.414 C 202.677 236.414 197.128 252.655 194.604 257.575 C 193.628 259.527 192.364 259.928 191.237 259.703 C 191.749 259.293 192.081 259.049 192.081 259.049 C 192.081 259.049 180.983 250.189 179.973 246.748 C 179.785 246.184 179.536 245.643 179.231 245.132 C 178.699 242.013 177.767 238.943 175.493 236.898 C 175.111 236.488 174.689 236.116 174.233 235.79 C 173.618 235.35 172.921 234.97 172.34 234.491 L 172.34 234.491 C 172.667 232.988 173.047 231.426 173.443 229.913 C 181.681 228.936 188.084 222.102 188.084 213.804 C 188.083 212.553 187.934 211.306 187.64 210.09 C 190.144 210.255 192.552 209.095 193.985 207.034 C 195.649 204.554 195.595 201.176 194.199 198.56 C 193.622 197.498 192.866 196.543 191.964 195.739 C 190.526 194.29 188.772 193.194 186.84 192.536 C 185.166 191.956 183.316 191.609 181.988 190.472 C 181.395 189.696 180.855 188.88 180.373 188.031 C 179.816 187.197 179.16 186.433 178.421 185.756 C 175.981 183.242 172.535 181.695 169.026 181.012 C 164.751 180.177 160.334 180.475 155.985 180.773 C 154.36 180.885 152.452 181.173 151.72 182.588 C 151.168 183.653 151.529 184.927 151.456 186.113 C 151.227 189.886 146.913 191.97 143.159 192.883 C 139.406 193.796 134.931 194.587 133.12 197.896 C 131.476 200.883 132.632 204.505 133.159 207.859 C 134.037 213.747 132.73 219.753 129.484 224.743 C 127.835 227.267 125.707 229.512 124.404 232.221 C 122.96 235.241 122.625 238.673 123.457 241.916 C 123.701 242.863 124.052 243.829 123.877 244.796 C 123.677 245.593 123.285 246.328 122.735 246.939 C 118.198 252.542 111.529 255.997 104.335 256.472 C 104.634 257.463 105.218 258.344 106.014 259.005 C 107.026 260.005 108.205 260.82 109.499 261.412 C 112.907 263.121 116.491 264.455 120.187 265.39 C 122.676 266.02 125.277 266.469 127.81 266.039 C 130.343 265.609 132.813 264.16 133.852 261.866 C 134.458 260.538 134.545 259.034 135.082 257.682 C 136.151 254.978 138.801 253.226 140.592 250.907 C 139.989 256.882 139.704 262.885 139.738 268.89 C 139.738 270.769 139.738 272.463 139.738 274.035 C 139.738 280.815 139.25 285.491 135.048 293.96 C 134.547 294.85 134.328 295.871 134.419 296.889 C 134.233 298.007 134.65 299.141 135.517 299.871 C 135.224 301.561 135.082 303.272 135.092 304.987 C 135.034 311.157 137.117 319.44 148.167 321.539 L 167.84 320.563 C 167.84 320.563 195.585 315.15 203.15 319.099 C 204.437 319.372 205.358 320.507 205.361 321.822 C 205.338 322.233 205.274 322.64 205.171 323.038 C 204.96 324.317 204.88 325.614 204.931 326.909 C 204.897 335.207 206.684 354.039 206.684 354.039 L 206.684 362.025 C 205.424 363.919 203.872 366.721 204.073 368.785 C 204.073 368.829 204.073 368.878 204.073 368.922 C 204.073 368.966 204.073 369.044 204.102 369.103 C 204.131 369.161 204.102 369.21 204.136 369.264 C 204.17 369.317 204.165 369.366 204.18 369.42 C 204.195 369.474 204.219 369.537 204.243 369.591 C 204.268 369.645 204.278 369.679 204.297 369.723 C 204.317 369.767 204.36 369.85 204.395 369.908 L 204.453 370.011 C 204.512 370.105 204.577 370.194 204.648 370.279 C 207.172 373.208 219.778 378.875 223.819 378.646 C 228.109 378.402 242.482 379.134 242.989 372.739 C 243.054 372.549 243.041 372.34 242.955 372.158 Z" fill="url(#b66fe85f-ad74-4eee-9789-144feaee2a7f)" style=""/>
  <path d="M 207.094 359.799 C 207.094 359.799 201.237 367.121 203.677 370.05 C 206.117 372.978 218.319 378.577 222.223 378.348 C 226.371 378.104 240.281 378.836 240.769 372.49 C 240.769 372.49 241.745 369.562 229.056 369.073 C 216.366 368.585 220.271 355.406 220.271 355.406 Z" fill="#594c76" style=""/>
  <path d="M 137.303 298.295 C 137.303 298.295 131.446 318.308 149.016 321.725 L 168.05 320.749 C 168.05 320.749 194.892 315.379 202.213 319.284 C 202.213 319.284 205.141 319.772 204.165 323.677 C 203.189 327.582 205.629 353.941 205.629 353.941 L 205.629 362.728 C 205.629 362.728 222.223 362.728 224.175 360.775 C 224.175 360.775 222.711 352.965 224.175 346.619 C 225.639 340.274 221.735 320.26 221.735 320.26 L 221.349 308.213 C 221.291 305.182 219.6 302.42 216.928 300.989 C 216.004 300.499 214.976 300.238 213.931 300.228 C 213.931 300.228 180.744 294.858 169.031 295.834 C 157.318 296.811 137.303 298.295 137.303 298.295 Z" opacity="0.1" style=""/>
  <path d="M 137.303 297.807 C 137.303 297.807 131.446 317.82 149.016 321.237 L 168.05 320.26 C 168.05 320.26 194.892 314.891 202.213 318.796 C 202.213 318.796 205.141 319.284 204.165 323.189 C 203.189 327.094 205.629 353.453 205.629 353.453 L 205.629 362.24 C 205.629 362.24 222.223 362.24 224.175 360.287 C 224.175 360.287 222.711 352.477 224.175 346.131 C 225.639 339.786 221.735 319.772 221.735 319.772 L 221.349 307.725 C 221.291 304.694 219.6 301.931 216.928 300.501 C 216.004 300.011 214.976 299.75 213.931 299.74 C 213.931 299.74 180.744 294.37 169.031 295.346 C 157.318 296.323 137.303 297.807 137.303 297.807 Z" fill="#8b9cd1" style=""/>
  <path d="M 187.572 258.268 C 187.572 258.268 191.476 263.149 193.916 258.268 C 196.357 253.387 201.725 237.278 201.725 237.278 C 201.725 237.278 214.902 223.123 219.295 227.516 C 223.687 231.909 208.558 239.719 208.558 239.719 C 208.558 239.719 203.189 269.495 198.309 269.983 C 193.428 270.471 186.108 269.983 186.108 269.983 L 183.667 264.614 Z" fill="#f8bdc5" style=""/>
  <path d="M 187.572 258.268 C 187.572 258.268 191.476 263.149 193.916 258.268 C 196.357 253.387 201.725 237.278 201.725 237.278 C 201.725 237.278 214.902 223.123 219.295 227.516 C 223.687 231.909 208.558 239.719 208.558 239.719 C 208.558 239.719 203.189 269.495 198.309 269.983 C 193.428 270.471 186.108 269.983 186.108 269.983 L 183.667 264.614 Z" opacity="0.05" style=""/>
  <path d="M 170.002 233.862 C 170.002 233.862 178.787 244.112 179.763 247.529 C 180.739 250.946 191.476 259.732 191.476 259.732 C 191.476 259.732 183.667 265.59 185.131 268.519 C 186.596 271.448 174.882 258.756 174.882 258.756 L 161.217 238.743 Z" fill="#eb6475" style=""/>
  <path d="M 170.002 233.862 C 170.002 233.862 178.787 244.112 179.763 247.529 C 180.739 250.946 191.476 259.732 191.476 259.732 C 191.476 259.732 183.667 265.59 185.131 268.519 C 186.596 271.448 174.882 258.756 174.882 258.756 L 161.217 238.743 Z" opacity="0.1" style=""/>
  <path d="M 175.859 222.146 C 175.859 222.146 171.466 236.302 171.466 241.672 C 171.466 247.041 152.92 240.207 153.408 237.278 C 153.896 234.35 164.145 223.611 164.634 219.218 C 165.122 214.824 175.859 222.146 175.859 222.146 Z" fill="#f8bdc5" style=""/>
  <path d="M 161.217 231.909 C 161.217 231.909 144.136 227.516 141.695 252.41 C 139.255 277.305 143.648 280.234 136.327 295.366 C 129.006 310.498 186.108 297.318 186.108 297.318 C 186.108 297.318 183.179 293.901 173.906 295.366 L 169.514 282.186 C 169.514 282.186 168.05 276.329 176.347 276.329 C 184.643 276.329 180.739 259.244 180.739 259.244 C 180.739 259.244 176.347 244.6 173.906 243.136 C 171.466 241.672 167.074 232.885 161.217 231.909 Z" opacity="0.1" style=""/>
  <path d="M 161.217 230.933 C 161.217 230.933 144.136 226.54 141.695 251.434 C 139.255 276.329 143.648 279.258 136.327 294.39 C 129.006 309.522 186.108 296.342 186.108 296.342 C 186.108 296.342 183.179 292.925 173.906 294.39 L 169.514 281.21 C 169.514 281.21 168.05 275.353 176.347 275.353 C 184.643 275.353 180.739 258.268 180.739 258.268 C 180.739 258.268 176.347 243.624 173.906 242.16 C 171.466 240.695 167.074 231.909 161.217 230.933 Z" fill="#eb6475" style=""/>
  <path d="M 178.299 266.078 C 178.299 266.078 213.926 269.983 219.783 269.007 C 219.783 269.007 245.942 265.785 239.305 272.424 C 238.817 272.912 221.735 276.817 219.783 276.329 C 217.831 275.841 176.347 276.329 176.347 276.329 L 175.859 271.448 Z" fill="#f8bdc5" style=""/>
  <path d="M 150.968 253.875 L 176.835 277.305 C 176.835 277.305 181.715 267.542 183.179 267.542 C 184.643 267.542 165.61 238.743 165.61 238.743 C 165.61 238.743 160.729 232.885 157.801 235.814 C 154.873 238.743 146.088 236.79 150.968 253.875 Z" opacity="0.1" style=""/>
  <path d="M 150.48 252.899 L 176.347 276.329 C 176.347 276.329 181.227 266.566 182.691 266.566 C 184.155 266.566 165.122 237.767 165.122 237.767 C 165.122 237.767 160.241 231.909 157.313 234.838 C 154.385 237.767 145.6 235.814 150.48 252.899 Z" fill="#eb6475" style=""/>
  <circle cx="228.75" cy="261.25" r="16.106" fill="#f8bdc5" transform="matrix(1, 0, 0, 1.000171, -57.283688, -46.47031)" style=""/>
  <path d="M 185.571 210.778 C 188.304 211.857 191.652 210.563 193.262 208.108 C 194.873 205.653 194.824 202.309 193.467 199.702 C 192.111 197.096 189.602 195.202 186.835 194.216 C 185.156 193.62 183.287 193.278 181.998 192.048 C 181.183 191.272 180.7 190.223 180.09 189.276 C 177.811 185.722 173.745 183.623 169.612 182.798 C 165.478 181.973 161.203 182.266 156.996 182.559 C 155.424 182.671 153.579 182.954 152.867 184.36 C 152.335 185.415 152.681 186.679 152.613 187.855 C 152.393 191.599 148.221 193.674 144.575 194.572 C 140.929 195.47 136.703 196.315 134.926 199.614 C 133.335 202.577 134.472 206.17 134.965 209.499 C 135.808 215.314 134.548 221.239 131.412 226.208 C 129.816 228.712 127.762 230.938 126.498 233.627 C 125.099 236.633 124.775 240.028 125.58 243.243 C 125.819 244.185 126.156 245.142 125.99 246.099 C 125.799 246.885 125.42 247.614 124.887 248.222 C 120.562 253.758 114.094 257.202 107.088 257.702 C 107.644 259.796 109.67 261.119 111.598 262.095 C 114.887 263.787 118.354 265.11 121.934 266.039 C 124.34 266.664 126.859 267.108 129.309 266.683 C 131.759 266.259 134.145 264.819 135.165 262.544 C 135.751 261.226 135.839 259.737 136.356 258.39 C 137.523 255.369 140.631 253.543 142.301 250.765 C 143.896 248.11 144.516 247.798 144.921 244.732 C 145.326 241.667 146.22 238.357 148.738 236.556 C 151.373 234.667 155.082 235.028 158.011 236.478 C 160.939 237.928 162.75 237.361 165.195 239.49 C 169.484 243.216 174.285 246.31 179.451 248.676 C 178.963 244.42 178.177 239.67 174.721 237.137 C 173.745 236.41 172.511 235.853 171.993 234.74 C 171.168 232.968 172.579 230.806 171.94 228.956 C 171.3 227.106 168.87 226.422 167.791 224.743 C 166.874 223.318 167.123 221.38 167.982 219.916 C 168.84 218.451 170.197 217.368 171.549 216.343 C 172.75 215.435 173.967 214.548 175.2 213.682 C 176.314 212.975 177.315 212.103 178.167 211.095 C 178.655 210.426 178.977 208.962 179.656 208.489 C 181.364 207.307 183.989 210.158 185.571 210.778 Z" opacity="0.1" style=""/>
  <path d="M 185.083 210.29 C 187.816 211.369 191.164 210.075 192.774 207.62 C 194.385 205.164 194.336 201.821 192.979 199.214 C 191.622 196.607 189.114 194.714 186.347 193.728 C 184.668 193.132 182.799 192.79 181.51 191.56 C 180.695 190.784 180.212 189.735 179.602 188.788 C 177.323 185.234 173.257 183.135 169.124 182.31 C 164.99 181.485 160.715 181.778 156.508 182.071 C 154.936 182.183 153.091 182.466 152.379 183.872 C 151.847 184.927 152.193 186.191 152.125 187.367 C 151.905 191.111 147.732 193.186 144.087 194.084 C 140.441 194.982 136.215 195.826 134.438 199.126 C 132.847 202.089 133.984 205.682 134.477 209.011 C 135.32 214.826 134.06 220.751 130.924 225.72 C 129.328 228.224 127.274 230.45 126.01 233.139 C 124.611 236.145 124.287 239.539 125.092 242.755 C 125.331 243.697 125.668 244.654 125.502 245.611 C 125.311 246.397 124.932 247.126 124.399 247.734 C 120.074 253.27 113.606 256.714 106.6 257.214 C 107.156 259.308 109.182 260.631 111.109 261.607 C 114.399 263.299 117.866 264.622 121.446 265.551 C 123.852 266.176 126.371 266.62 128.821 266.195 C 131.271 265.771 133.657 264.331 134.677 262.056 C 135.263 260.738 135.351 259.249 135.868 257.902 C 137.034 254.88 140.143 253.055 141.812 250.277 C 143.408 247.622 144.028 247.31 144.433 244.244 C 144.838 241.179 145.731 237.869 148.25 236.068 C 150.885 234.179 154.594 234.54 157.523 235.99 C 160.451 237.44 162.262 236.873 164.707 239.002 C 168.996 242.728 173.797 245.822 178.963 248.188 C 178.475 243.932 177.689 239.182 174.233 236.649 C 173.257 235.921 172.023 235.365 171.505 234.252 C 170.68 232.48 172.091 230.318 171.452 228.468 C 170.812 226.618 168.382 225.934 167.303 224.255 C 166.386 222.83 166.635 220.892 167.493 219.428 C 168.352 217.963 169.709 216.879 171.061 215.854 C 172.262 214.947 173.479 214.06 174.712 213.194 C 175.826 212.487 176.826 211.615 177.679 210.607 C 178.167 209.938 178.489 208.474 179.168 208 C 180.876 206.819 183.501 209.67 185.083 210.29 Z" fill="#916168" style=""/>
  <g opacity="0.1" transform="matrix(0.488046, 0, 0, 0.48813, 59.825722, 87.300438)" style="">
    <path d="M475.72,678.56a34.56,34.56,0,0,1,1.14-7.88l-.5.17A34.82,34.82,0,0,0,475.72,678.56Z" transform="translate(-148.11 -121.43)" fill="#fff"/>
    <path d="M480.86,715.68c-8,.47-33-11-38-17a5.33,5.33,0,0,1-1.16-2.84,6.28,6.28,0,0,0,1.16,4.84c5,6,30,17.47,38,17,8.5-.5,37,1,38-12a1.62,1.62,0,0,0-.14-1.06C516.43,716.6,489.15,715.19,480.86,715.68Z" transform="translate(-148.11 -121.43)" fill="#fff"/>
  </g>
  <rect x="241.501" y="231.665" width="0.488" height="20.013" fill="#ffd77c" stroke="#ffab50" stroke-miterlimit="10" stroke-width="0.25" style=""/>
  <rect x="241.989" y="231.665" width="0.488" height="20.013" fill="#ffd77c" stroke="#ffab50" stroke-miterlimit="10" stroke-width="0.25" style=""/>
  <rect x="242.477" y="231.665" width="0.488" height="20.013" fill="#ffd77c" stroke="#ffab50" stroke-miterlimit="10" stroke-width="0.25" style=""/>
  <rect x="242.965" y="231.665" width="0.488" height="20.013" fill="#ffd77c" stroke="#ffab50" stroke-miterlimit="10" stroke-width="0.25" style=""/>
  <rect x="243.453" y="231.665" width="0.488" height="20.013" fill="#ffd77c" stroke="#ffab50" stroke-miterlimit="10" stroke-width="0.25" style=""/>
  <rect x="243.941" y="231.665" width="0.488" height="20.013" fill="#ffd77c" stroke="#ffab50" stroke-miterlimit="10" stroke-width="0.25" style=""/>
  <rect x="244.429" y="231.665" width="0.488" height="20.013" fill="#ffd77c" stroke="#ffab50" stroke-miterlimit="10" stroke-width="0.25" style=""/>
  <g transform="matrix(0.487171, 0, 0, -0.421277, -52.993149, 442.704468)" style="">
    <g transform="matrix(1.8983 0 0 1.8983 -583.64 -618.85)">
      <g fill="#fff" transform="translate(695.17 705.31)">
        <path d="m0 0c0-45.435-42.687-66.991-43.118-67.203l-0.747-0.369-0.385-0.189-0.385 0.189-0.747 0.369c-0.431 0.212-43.118 21.769-43.118 67.203v35.693 0.87h0.871 86.758 0.871v-0.87-35.693z" fill="#fff"/>
      </g>
      <g transform="translate(694.3 705.31)">
        <path d="m0 0c0-44.901-42.206-66.212-42.632-66.422l-0.747-0.368-0.747 0.368c-0.426 0.21-42.632 21.521-42.632 66.422v35.693h86.758v-35.693z"/>
      </g>
      <g fill="#a51c30" transform="translate(609.23 739.31)">
        <path d="m0 0v-34.003c0-44.368 41.689-64.906 41.689-64.906s41.689 20.538 41.689 64.906v34.003h-83.378z" fill="#a51c30"/>
      </g>
      <g transform="translate(657.76 732.03)">
        <path d="m0 0v-10.868h2.503v-14.883h-18.697v14.883h2.485v10.868h-15.87v-10.868h2.508v-40.634h-2.519l0.014-10.868h15.867v10.868h-2.474v14.883h18.674v-14.883h-2.491v-10.868h15.904v10.868h-2.501v40.634h2.501v10.868h-15.904z"/>
      </g>
      <g fill="#fff" transform="translate(659.28 730.5)">
        <path d="m0 0v-7.826h2.503v-17.925h-21.739v17.925h2.485v7.826h-12.828v-7.826h2.508v-43.677h-2.517l0.01-7.825h12.827v7.825h-2.473v17.926h21.715v-17.926h-2.491v-7.825h12.862v7.825h-2.501v43.677h2.501v7.826h-12.862z" fill="#fff"/>
      </g>
    </g>
  </g>
</svg>